<?xml version="1.0" encoding="UTF-8"?>
<svg id="Capa_2" data-name="Capa 2" xmlns="http://www.w3.org/2000/svg" viewBox="0 0 326.02 350.07">
  <defs>
    <style>
      .cls-1, .cls-2 {
        stroke-width: 0px;
      }

      .cls-2 {
        fill: #fff;
      }
    </style>
  </defs>
  <g id="Capa_1-2" data-name="Capa 1">
    <g>
      <g>
        <path class="cls-1" d="M234.47,190.75c-.94,7.2-5.44,10.34-11.17,11.44-8.27,1.59-16.66,2.69-25.04,3.62-4.53.5-5.22.88-5.18,5.51.06,7.63,3.89,13.13,9.75,17.48,9.76,7.27,22.25,7.29,31.83.11,8.6-6.44,11.58-17.61,7.52-28.58-1.39-3.76-3.47-7.05-7.71-9.58Z"/>
        <path class="cls-1" d="M79.96,93.3c-12.3-.26-22.02,12.62-18.47,24.39.72,2.37,2.15,3.3,4.49,2.74,9.47-2.27,18.93-2.05,28.37.08,2.43.55,3.42-.51,3.99-2.71,3.25-12.48-5.54-24.23-18.39-24.5Z"/>
        <path class="cls-1" d="M146.5,118.5c1.48-4.14.19-8.33-3.42-10.86-6.38-4.46-13.52-6.47-21.29-6.78-2.55.35-5.32.21-7.59,1.2-1.91.84-3.99,2.76-4.63,4.66-.86,2.56-.66,5.58-.38,8.35.09.86,1.83,2.08,2.94,2.23,10.12,1.32,20.28,2.37,30.41,3.65,2.23.28,3.29-.55,3.98-2.46Z"/>
        <path class="cls-1" d="M300.69,205.49c-9.13.18-18.09-.92-26.81-3.75-4.98-1.62-8.85-4.39-10.19-9.85-.35-.21-.69-.41-1.04-.62-.84,1.1-1.66,2.22-2.52,3.3-9.09,11.43-6.38,26.16,6.36,34.48,15.83,10.35,38.08.12,39.34-18.09.34-4.97-.23-5.56-5.15-5.47Z"/>
      </g>
      <path class="cls-2" d="M322.79,231.94c-.92-1.16-1.41-3.25-1.1-4.71,2.16-10.42,4.34-20.8,1.29-31.44-.35-1.22-.35-2.59-.26-3.87.58-8.28-1.42-15.9-5.71-22.96-2.57-4.23-4.82-8.68-7.73-12.65-6.45-8.8-12.49-18.18-24.14-21.11-1-.25-1.9-.92-2.8-1.49-8.61-5.43-18.06-7.82-28.17-8.13-17.83-.55-34.97,2.26-49.96,12.37-12.7,8.55-21.98,20.57-29.64,33.71-1.64,2.81-1.91,6.47-2.61,9.78-.93,4.45-1.51,8.98-2.54,13.4-.64,2.74-1.9,5.32-2.78,8-1.55,4.74-1.09,9.3,1.41,13.64,1.88,3.27,3.67,6.59,5.63,9.81,1.49,2.44,1.22,4.32-1.06,6.14-1.15.91-2.2,2.15-2.84,3.47-3.93,8.18.55,16.93,9.97,19.51,1.03.28,2.22,0,3.34-.03-.11-1.08-.06-2.2-.35-3.23-.74-2.62-1.64-5.2-2.47-7.79.34-.3.68-.6,1.02-.9,12.36,33.69,39.18,44.53,71.85,46.35-.72.58-1.33.89-1.94.89-13.22.11-26.05-2.04-38.37-6.92-3.6-1.43-5.45-.9-7.26,2.41-4.82,8.81-9.47,17.67-11.13,27.75-.63,3.85-3.82,3.19-6.37,3.56-2.38.34-3.79-.89-4.35-3.17-.92-3.78-1.71-7.59-2.77-11.33-5.79-20.53-11.71-41.02-17.42-61.58-1.51-5.45-3.99-9.26-10.27-9.24-1.25,0-2.52-.56-3.76-.91-7.36-2.07-14.7-4.25-22.1-6.18-2.46-.64-3.75-1.83-3.61-4.37.15-2.65-.94-5.53,3.08-6.89,3.48-1.17,7.5-2.76,9.65-5.46,5.38-6.76,11.78-11.17,20.27-12.68,2.24-.4,2.46-1.8.98-3.58-1.88-2.26-3.67-4.61-5.41-6.98-1.7-2.31-1.18-4.03,1.7-4.62,3.23-.66,6.48-1.25,9.75-1.6,2.65-.28,3.24-1.56,2.43-3.82-1.08-2.99-2.27-5.95-3.33-8.95-1.4-3.97-.83-4.87,3.01-6.31,4.73-1.78,9.41-3.72,14.04-5.76,1.52-.67,2.82-1.85,4.91-3.25-2.65-1.63-4.63-2.8-6.57-4.05-4.54-2.93-9.1-5.84-13.55-8.9-.95-.66-1.47-1.95-2.19-2.95,1.05-.62,2.04-1.44,3.17-1.82,10.64-3.57,21.11-7.5,30.45-13.89,1.18-.81,2.18-1.86,4.08-3.51-10.09-4.29-19.31-8.2-29.11-12.36,9.17-8.64,17.98-16.94,26.79-25.24-.22-.34-.45-.68-.67-1.02-11.09-1.77-22.18-3.54-33.78-5.39.72-1.71,1.04-2.81,1.6-3.77,5.73-9.76,11.52-19.48,17.24-29.24.43-.73.49-1.68.72-2.53-.94,0-1.98-.25-2.82.05-8.77,3.13-17.49,6.37-26.25,9.53-4.2,1.52-4.77,1.13-5.74-3.23-2.5-11.12-3.35-22.37-2.81-33.75.08-1.67-.22-3.36-.36-5.19-1.01.16-1.52.12-1.91.32-11.63,6.17-22.58,13.22-30.89,23.71-3.15,3.98-3.95,3.81-7.08-.1-6.68-8.37-13.52-16.61-20.35-24.86-.75-.91-1.86-1.52-3.22-2.6-.71,3.89-1.62,7.08-1.82,10.32-.57,9.19-3.02,17.84-6.59,26.27-1.2,2.84-2.51,3.14-5.05,1.51-8.15-5.25-17.33-7.88-26.69-9.91-.88-.19-1.91.31-2.87.49.19.88.16,1.89.61,2.61,5.25,8.37,7.09,17.91,9.52,27.25.8,3.07-.27,4.17-3.43,4.41-11.04.82-22.06,1.91-33.09,2.88-2.16.19-4.34.29-7.66.51,2.23,2.35,3.62,4.02,5.21,5.48,7.51,6.91,14.18,14.45,18.96,23.57,1.53,2.91,1.02,4.68-1.65,6.47-6.06,4.08-11.98,8.36-17.95,12.58-2.75,1.95-5.47,3.95-9.15,6.6,2.58.78,4.14,1.42,5.77,1.73,10.45,1.94,19.36,6.46,26.07,14.95,2.03,2.57,1.87,4.13-.72,6.4-5.2,4.57-10.06,9.56-14.85,14.58-2.64,2.77-2.28,3.59,1.35,4.78,6.05,1.97,12.08,4.02,18.19,5.8,3,.88,3.95,2.17,2.99,5.35-1.6,5.3-2.8,10.72-4.05,16.11-.74,3.19-.05,3.87,3.16,3.47,3.04-.38,6.06-1.01,9.1-1.19,8.93-.53,9.31-.11,9.59,8.93.24,7.77.79,8.08,7.78,4.67,2.44-1.19,2.99-2.84,1.59-5.13-1.47-2.41-3.15-4.72-4.42-7.23-9.64-19.2-13.33-39.62-12.4-60.81,1.12,7.67,2.17,15.37,3.37,23.05,2.63,16.83,7.21,32.94,17.57,46.86.53.71,1.14,1.46,1.89,1.87,5.11,2.82,10.33,5.44,15.35,8.4,1.32.78,2.94,2.52,2.91,3.78-.04,1.71-1.35,3.52-2.48,5.01-.54.71-1.91.79-2.91,1.13-10.51,3.49-21.01,7.02-31.54,10.44-3.26,1.06-5.04,3.11-5.78,6.44-.76,3.45-1.83,6.83-2.83,10.22-4.05,13.66-8.2,27.3-12.06,41.02-.39,1.38.46,3.78,1.57,4.8,10.84,9.94,21.96,19.55,34.64,27.17,2.76,1.66,5.18,2.11,8.29.97,11.65-4.3,23.63-5.22,35.84-2.76,12.82,2.58,24.45,7.2,32.04,18.72,1.56,2.36,2.81,4.96,4.59,7.12.96,1.16,2.76,1.62,4.18,2.4.56-1.27,1.57-2.54,1.6-3.82.17-6.37.02-12.74.1-19.11.05-4.44.96-5.35,5.47-5.4,6.48-.08,12.97-.16,19.45.1,1.66.07,3.68.99,4.84,2.19,6.2,6.45,12.25,13.04,18.21,19.72,2.73,3.07,5.71,4.83,9.93,3.72,3.7-.98,7.47-1.73,11.1-2.9.83-.27,1.7-1.86,1.75-2.88.22-4.59.11-9.2.19-13.8.08-4.83,1.28-6.07,6.11-6.12,7.07-.08,14.15-.05,21.22-.04,4.86,0,5.66.81,5.7,5.83.04,5.43-.05,10.85.06,16.28.06,3.07,1.71,4.07,3.98,2.65,2.97-1.86,3-5.84.69-8.41-1.68-1.87-3.45-4.47-3.55-6.82-.38-9.18,7.26-14.31,16-11.48,1.58.51,4.08.12,5.41-.85,5.23-3.84,10.01-8.28,15.26-12.08,2.47-1.78,2.81-3.63,1.73-5.95-2.52-5.43-5.01-10.9-7.94-16.12-2.31-4.11-2.34-4.35,1.23-7.54,4.64-4.14,9.45-8.23,13.35-13.03,3.72-4.57,7.56-8.43,12.93-11.12,8.03-4.01,9.69-14.17,4.17-21.14ZM234.66,228.91c-9.58,7.18-22.07,7.15-31.83-.11-5.85-4.36-9.69-9.86-9.75-17.48-.04-4.63.66-5.01,5.18-5.51,8.38-.93,16.76-2.03,25.04-3.62,5.73-1.1,10.23-4.24,11.17-11.44,4.24,2.53,6.33,5.82,7.71,9.58,4.06,10.97,1.08,22.14-7.52,28.58ZM98.35,117.8c-.57,2.2-1.56,3.26-3.99,2.71-9.44-2.12-18.91-2.35-28.37-.08-2.34.56-3.78-.37-4.49-2.74-3.55-11.77,6.17-24.65,18.47-24.39,12.85.27,21.65,12.02,18.39,24.5ZM112.11,117.31c-1.11-.14-2.85-1.37-2.94-2.23-.28-2.77-.48-5.8.38-8.35.64-1.9,2.72-3.82,4.63-4.66,2.27-1,5.04-.85,7.59-1.2,7.77.31,14.91,2.31,21.29,6.78,3.61,2.52,4.9,6.71,3.42,10.86-.68,1.92-1.75,2.75-3.98,2.46-10.13-1.28-20.28-2.34-30.41-3.65ZM156.31,317.61c-.99-.68-2.06-1.28-2.97-2.06-4.02-3.45-7.93-7.03-12.01-10.41-2.48-2.06-2.69-3.8-.22-6.04,3.58-3.24,6.96-6.69,10.48-9.99,3.82-3.58,4.67-5.84,2.39-10.65-6.66-14.02-13.6-27.92-20.47-41.84-.88-1.79-2-3.46-2.96-5.21-.13-.24.03-.64.12-1.61.91.96,1.56,1.5,2.05,2.17,10.75,14.68,17.94,31.17,24.33,48.05,1.46,3.85.38,7.12-2.69,9.85-3.44,3.04-6.71,6.28-10.2,9.26-2.14,1.83-2.14,3.42-.15,5.22,3.65,3.32,7.25,6.69,10.99,9.91.83.72,2.16.86,3.26,1.27-.65.7-1.3,1.39-1.95,2.09ZM305.83,210.95c-1.26,18.21-23.51,28.44-39.34,18.09-12.74-8.32-15.45-23.05-6.36-34.48.86-1.08,1.68-2.2,2.52-3.3.35.21.69.41,1.04.62,1.33,5.47,5.2,8.23,10.19,9.85,8.72,2.84,17.67,3.93,26.81,3.75,4.92-.1,5.49.5,5.15,5.47Z"/>
    </g>
  </g>
</svg>